<?xml version="1.0" encoding="utf-8"?>
<!-- Generator: Adobe Illustrator 15.1.0, SVG Export Plug-In . SVG Version: 6.00 Build 0)  -->
<!DOCTYPE svg PUBLIC "-//W3C//DTD SVG 1.1//EN" "http://www.w3.org/Graphics/SVG/1.1/DTD/svg11.dtd">
<svg version="1.1" id="Warstwa_1" xmlns="http://www.w3.org/2000/svg" xmlns:xlink="http://www.w3.org/1999/xlink" x="0px" y="0px"
	 width="195px" height="160px" viewBox="0 0 195 160" enable-background="new 0 0 195 160" xml:space="preserve">
<polygon fill="#F5F5F5" points="0.024,0 33.333,159 102.334,113.334 189.667,124.667 166,0 "/>
<rect x="72.852" y="10.255" transform="matrix(0.9713 -0.2379 0.2379 0.9713 -11.1561 23.4047)" fill-rule="evenodd" clip-rule="evenodd" fill="#FFFFFF" width="37.101" height="95.349"/>
<path fill-rule="evenodd" clip-rule="evenodd" fill="#1B3891" d="M98.571,104.249l-3.305-13.49c0.203,0.075,0.426,0.104,0.656,0.074
	c0.485-0.064,0.98-0.08,1.484-0.054c0.505,0.027,1.04,0.103,1.607,0.223c0.139,0.035,0.286,0.049,0.437,0.036
	c0.759-0.057,1.328-0.718,1.271-1.477c-0.011-0.137-0.012-0.285-0.003-0.447c0.007-0.147,0.021-0.286,0.036-0.416
	c0.008-0.025,0.012-0.052,0.017-0.08c0.021-0.133,0.069-0.362,0.141-0.684c0.069-0.315-0.057,0.256,0.053-0.229l0.015-0.062
	c0.194,0.188,0.396,0.354,0.604,0.497l3.552,14.5L98.571,104.249L98.571,104.249z M93.686,84.303l-2.74-11.187l0.038,0.01l0,0
	c1.749,0.479,3.959,0.975,5.528,1.317l0.011,0.001l0.092,0.021l0.085,0.018l0.007,0.001l0.083,0.018l0.007,0.001l0.089,0.019
	l0.081,0.018l0.004,0.001l0.081,0.017l0.005,0.001l0.083,0.018l0.077,0.017l0.003,0.001l0.079,0.016l0.075,0.017h0.001l0.074,0.015
	l0.001,0.001l0.072,0.015l0.071,0.016v-0.001l0.067,0.015l0.017,0.004l0.015,0.003l0.029,0.006l0.016,0.004l0.015,0.003l0.01,0.002
	l0.014,0.002L93.686,84.303L93.686,84.303z M97.779,74.715l0.01,0.002l0.005,0.001l0.008,0.001l0.006,0l0.008,0.002l0.006,0.002
	l0.015,0.003l0.015,0.003l0.005,0.001l0.008,0.001l0.013,0.003l0.001,0l0.005,0.001l0,0h0.002l0.021,0.004l0.012,0.002l0.013,0.002
	l0.001,0.001h0.001l0.002,0l0.022,0.004l0.013,0.003l0.01,0.002h0.001h0.002l0,0l0.023,0.006l0.012,0.001l0.01,0.002l0.002,0.001
	l0.034,0.007l0.007,0.001c0.112,0.023,0.199,0.043,0.257,0.056l1.667,6.801c-0.489-0.439-0.978-0.879-1.466-1.318
	c-0.092-0.19-0.16-0.331-0.205-0.425c-0.02-0.039-0.089-0.178-0.313-0.632c-0.013-0.029-0.026-0.057-0.042-0.085
	c-0.198-0.368-0.396-0.677-0.598-0.925c-0.237-0.297-0.489-0.534-0.759-0.708c-0.383-0.259-0.89-0.319-1.342-0.114
	c-0.065,0.03-0.129,0.057-0.191,0.082c-0.042,0.017-0.099,0.037-0.175,0.063l0.001,0.003l-0.026,0.009l-0.419,0.148
	c-0.627,0.179-1.058,0.785-0.994,1.457c0.077,0.81,0.135,1.657,0.172,2.544c0.036,0.857,0.054,1.715,0.051,2.572L97.779,74.715
	L97.779,74.715z M89.331,66.52l-6.621-27.038l5.763,6.273l1.438-5.287l0.338,1.378c-0.113,0.459-0.219,0.932-0.315,1.419
	c-0.571,0.98-0.645,2.037-1.092,2.859c-0.002,0.187-0.286,0.619-0.328,0.925c-0.259,1.955-0.592,2.191-0.681,2.253
	c-0.268,0.189-0.435,0.304-0.559,0.719c-0.012,0.036-0.023,0.073-0.033,0.11c-0.238,0.939-0.072,1.536,0.121,2.013
	c-0.28,0.281-0.438,0.679-0.398,1.105c0.034,0.358,0.076,0.725,0.125,1.097c0.05,0.385,0.102,0.731,0.153,1.049l0.323,1.982
	c0.074,0.497,0.417,0.933,0.924,1.104c0.716,0.242,0.762,0.586,0.791,0.797c0.112,0.815,0.189,1.392,1.309,1.617
	C90.82,60.943,91,61,91.15,61.046c0.177,0.055,0.328,0.103,0.515,0.139l0.001-0.003l0.004,0.001c2.078,0.4,2.724-0.232,2.927-1.285
	c0.013-0.064,0.021-0.125,0.026-0.184l2.255,9.209l-0.032-0.003l-0.002-0.001l-0.094-0.009l-0.012,0l-0.138-0.015l0,0l-0.008,0
	l-0.037-0.003l-0.007,0l-0.031-0.003l-0.049-0.004l-0.057-0.006l-0.008-0.001l-0.011,0l-0.028-0.004l0,0l-0.038-0.004l-0.039-0.003
	h-0.001l-0.039-0.005l-0.036-0.004H96.21l-0.03-0.004l-0.01,0l-0.04-0.003l-0.006-0.001l-0.158-0.019l-0.01,0l-0.152-0.018l-0.005,0
	l-0.016-0.002l-0.026-0.003l-0.03-0.003l-0.012-0.001l-0.044-0.005h-0.004l-0.038-0.006c-0.224-0.025-0.456-0.056-0.693-0.088
	l-0.021-0.004c-0.244-0.033-0.495-0.068-0.75-0.108L94.1,68.578c-0.109-0.017-0.218-0.034-0.329-0.052h-0.003l-0.062-0.012
	l-0.067-0.01l-0.065-0.012l-0.066-0.011l-0.067-0.011l-0.066-0.011l-0.066-0.013l-0.001-0.001l-0.065-0.01l-0.065-0.013
	l-0.066-0.011l-0.066-0.013c-0.409-0.075-0.852-0.166-1.324-0.277c-0.401-0.095-0.768-0.191-1.084-0.291h-0.001l0,0h-0.001H90.63
	l0,0l-0.001-0.001l0,0l-0.001,0h-0.001l0,0l-0.002-0.001h-0.001h-0.001l0,0l-0.001-0.001l-0.002,0l0,0l-0.004-0.003h-0.002l-0.001,0
	l0,0h-0.001h-0.001l0,0l0,0l0,0l0,0l0,0l-0.004-0.001l-0.001-0.001l0,0l-0.002,0l-0.003-0.001L90.6,67.819h-0.001l0,0l0,0v0
	l-0.002-0.001l0,0h-0.001h-0.001v0l-0.003-0.001H90.59l-0.005-0.002c-0.42-0.476-0.833-0.945-1.237-1.405L89.331,66.52L89.331,66.52
	z"/>
<path fill-rule="evenodd" clip-rule="evenodd" fill="#1B3891" d="M85.437,107.467l-3.98-16.254l0.024-0.008
	c0.271-0.108,0.426-0.17,0.46-0.184V91.02c0.561-0.228,1.024-0.408,1.391-0.537c0.043-0.016,0.085-0.03,0.129-0.044l0.368,0.456
	l0.006,0.007c0.201,0.254,0.821,1.002,0.956,1.166c0.254,0.338,0.659,0.555,1.114,0.552c0.275-0.002,0.534-0.007,0.772-0.018
	c0.198-0.009,0.402-0.022,0.614-0.041c0.094-0.004,0.188-0.017,0.282-0.04c0.427-0.104,0.758-0.396,0.929-0.767l0.047-0.011
	l3.455,14.114L85.437,107.467L85.437,107.467z M71.706,49.936l-7.959-31.091l9.474,10.31l5.415,22.11
	c-0.119-0.258-0.238-0.514-0.358-0.768l-0.012-0.024c-0.111-0.236-0.224-0.47-0.338-0.701l-0.019-0.04l-0.016-0.031l-0.013-0.025
	l-0.009-0.021l-0.002-0.004l-0.043-0.087v-0.001l-0.046-0.09l-0.01-0.021l-0.035-0.067l-0.002-0.004l-0.02-0.04l-0.003-0.006
	l-0.024-0.045c-0.044-0.088-0.091-0.177-0.137-0.265l-0.002-0.006l-0.004-0.008l-0.043-0.081l-0.014-0.028l-0.009-0.017
	c-0.04-0.074-0.079-0.146-0.119-0.221l0-0.001l-0.044-0.08l-0.001-0.003l-0.002-0.004l-0.002-0.005l-0.042-0.077l-0.003-0.005
	l-0.008-0.015l-0.016-0.028l-0.024-0.043l-0.02-0.035l-0.005-0.009l-0.025-0.043c-0.217-0.408-0.634-0.698-1.128-0.729
	c-1.194-0.08-1.979,0.648-2.746,1.36c-0.302,0.279-0.429,0.572-0.513,0.562c0,0.001,0,0.001,0,0.003
	c-0.008-0.002-0.017-0.002-0.026-0.003c-0.001,0-0.003,0-0.004,0c-0.002,0-0.006,0-0.008,0c-0.006,0-0.012,0-0.018-0.001
	c-0.004,0-0.01,0-0.015,0c-0.005,0-0.011-0.001-0.016-0.001c-0.003-0.001-0.006,0-0.008,0c-0.006-0.001-0.013-0.001-0.019-0.002
	c-0.005,0.001-0.011,0-0.015,0h-0.001c-0.007,0-0.016,0-0.023,0c-0.001,0-0.002,0-0.002,0c-0.009,0-0.018,0-0.025,0
	c-0.001,0.001-0.002,0-0.003,0c-0.002,0.001-0.004,0.001-0.005,0c-0.008,0.001-0.017,0.002-0.025,0.002l0,0
	c-0.006,0-0.012,0-0.018,0.001c0,0-0.002,0-0.003,0c-0.006,0-0.012,0.001-0.019,0.001c-0.005,0-0.01,0-0.014,0
	c-0.003,0.001-0.006,0.001-0.009,0.001c-0.007,0-0.015,0.002-0.022,0.002c-0.002,0-0.004,0-0.006,0
	c-0.01,0.003-0.02,0.003-0.029,0.004c-0.009,0.001-0.017,0.002-0.024,0.003c-0.001,0-0.002,0-0.002,0
	c-0.004,0.001-0.007,0.001-0.011,0.002c-0.007,0-0.013,0.001-0.021,0.003c0,0-0.001,0-0.003,0.001c-0.008,0-0.016,0.003-0.023,0.003
	c-0.002,0.001-0.005,0.001-0.008,0.002c-0.007,0-0.014,0.002-0.021,0.004c-0.002,0-0.004,0.001-0.006,0.001
	c-0.004,0-0.007,0.001-0.011,0.002c-0.013,0.003-0.024,0.006-0.035,0.01c-0.002,0-0.004,0-0.006,0.001c-0.001,0-0.002,0-0.004,0
	c-0.007,0.001-0.013,0.004-0.021,0.006c-0.006,0.002-0.012,0.003-0.018,0.005c-0.005,0.002-0.008,0.002-0.012,0.005
	c-0.004,0-0.008,0-0.012,0.003c-0.005,0-0.009,0.003-0.013,0.004c-0.004,0.001-0.007,0.002-0.012,0.003
	c-0.006,0.003-0.013,0.004-0.019,0.007c-0.001,0.001-0.004,0.001-0.005,0.002c-0.001,0-0.003,0-0.004,0
	c-0.023,0.01-0.046,0.018-0.069,0.028l0,0C72.049,49.631,72.021,49.645,71.706,49.936L71.706,49.936z M79.088,81.542l-3.653-14.919
	c0.231-0.031,0.452-0.061,0.666-0.086l0.006-0.002l0.022-0.002c0.086-0.011,0.172-0.021,0.257-0.032h0.006
	c0.07-0.009,0.14-0.017,0.208-0.025l0.008-0.001l0.149-0.016l0.01-0.001l0.027-0.002l0.008-0.001l0.001-0.001l0.071-0.007
	l0.026-0.003l0.026-0.002l0.007-0.002l0.018-0.002l0.026-0.003l0.001,0l0.026-0.002l0.017-0.001l0.009-0.001l0.006-0.001
	l0.045-0.005l0.026-0.002l0,0l0.026-0.003l0.005,0l0.045-0.004l0.008-0.001l0.017-0.001l0.025-0.003
	c0.546-0.055,1.024-0.089,1.469-0.108l1.71,2.578c0.342,0.516,0.616,1.157,0.889,1.796c0.186,0.435,0.371,0.867,0.571,1.269
	c0.01,0.02,0.02,0.04,0.03,0.061l0.002,0.005l0.005-0.002c0.177,0.347,0.5,0.616,0.908,0.712c0.168,0.04,0.288,0.179,0.396,0.306
	l0.013,0.015l0.006,0.007l0.006,0.007l0.014,0.015l0,0l0.012,0.015l0.006,0.007l0.006,0.007l0.012,0.015l0.014,0.014l0.006,0.007
	l0.006,0.008l0.012,0.014l0,0c0.026,0.03,0.05,0.059,0.077,0.086v0.001l0.012,0.013l0.007,0.007l0.001,0.002
	c0.064,0.07,0.128,0.137,0.198,0.202l0.001,0.001l0.007,0.005v0.001c0.15,0.14,0.318,0.263,0.528,0.364l0,0l3.076,12.565
	c-0.078-0.057-0.153-0.109-0.224-0.162c-0.693-0.495-1.236-0.894-1.627-1.191l-0.002,0.003c-1.05-0.809-1.995-1.612-2.834-2.412
	c-0.224-0.214-0.377-0.363-0.461-0.446c-0.1-0.099-0.227-0.23-0.383-0.394c-0.307-0.357-0.787-0.549-1.285-0.462
	c-0.171,0.031-0.403,0.068-0.712,0.117C79.456,81.49,79.246,81.521,79.088,81.542L79.088,81.542z"/>
<path fill-rule="evenodd" clip-rule="evenodd" fill="#1B3891" d="M113.015,100.712l-3.355-13.71l0.061-0.023
	c0.155-0.063,0.291-0.117,0.398-0.162c0.649-0.236,1.031-0.925,0.87-1.61c0.618,0.89,1.381,1.592,2.284,2.104
	c0.188,0.106,0.39,0.209,0.603,0.304c0.199,0.088,0.388,0.164,0.566,0.227c0.256,0.101,0.545,0.126,0.833,0.056
	c0.521-0.128,1.002-0.291,1.442-0.492l2.865,11.699L113.015,100.712L113.015,100.712z M109.859,82.951
	c-0.188-0.285-0.398-0.588-0.633-0.906c-0.22-0.301-0.411-0.558-0.572-0.767c-0.124-0.159-0.315-0.401-0.575-0.723l-1.919-7.844
	l0.001-0.001l0.063-0.041l0.012-0.009l0.005-0.002l0.079-0.052l0.001-0.002l0.017-0.011l0.015-0.01l0.009-0.006l0.024-0.015
	l0.016-0.012l0.001-0.001c0.047-0.033,0.096-0.065,0.144-0.098l0.017-0.011l0.005-0.005l0.011-0.007l0.017-0.011l0.015-0.01h0.001
	l0.016-0.013l0.017-0.01l0.008-0.006l0.008-0.005l0.018-0.011l0.015-0.012l0.002-0.002l0.015-0.008l0.016-0.013l0.012-0.007
	l0.005-0.004l0.003-0.002l0.062-0.043l0.014-0.009l0.002-0.003l0.064-0.047l0.017-0.011v0l0.017-0.012l0.017-0.012l0.008-0.006
	l0.008-0.005l0.015-0.012l0.061-0.043l0.006-0.004l0.015-0.012l0.017-0.013l0.005-0.002l0.012-0.01l0.016-0.012l0.015-0.01
	l0.002-0.001l0.031-0.024l0.008-0.005l0.01-0.007l0.016-0.012l0.017-0.012c0.022-0.015,0.045-0.031,0.066-0.047
	c1.354-1.015,2.688-2.239,3.992-3.662l0.01-0.009l0.001-0.003l0.028-0.03l0.009-0.01l0.001,0l0.01-0.011l0.002-0.002l0.011-0.012
	l0.008-0.008l0.006-0.005l0.003-0.005l0.009-0.008l0.002-0.003l0.02-0.021l0.003-0.002l0.007-0.009l0.005-0.005l0.005-0.005
	l0.028-0.033l0.003-0.001l0.008-0.009l0.004-0.004l0.006-0.006l0.006-0.006l0.033-0.037l0.002-0.003l0.027-0.029l0.008-0.01
	l0.001-0.001l0.011-0.011l0.001-0.002l0.008-0.01l0.017-0.016l0.003-0.005l0.009-0.009l0.002-0.001l0.019-0.022l0.003-0.002
	l0.007-0.008l0.005-0.006l0.022-0.024l0.002-0.001v0l0.009-0.01l0.002-0.002l0.001-0.002l0.063-0.071l0.005-0.005l0.005-0.005
	l0.007-0.008l0.002-0.003l0.01-0.01l0.02-0.022l0.004-0.004l0.022-0.027l0.001-0.001l0.003-0.002l0.017-0.019l0.002-0.004
	l0.007-0.007l0.018-0.019l0.002-0.002l0.003-0.004l0.016-0.018l0.002-0.002l0.007-0.008l0.004-0.005l0.013-0.013l0.002-0.004
	l1.508,6.157c-0.069-0.062-0.142-0.12-0.215-0.172c-0.322-0.249-0.749-0.353-1.175-0.25c-0.343,0.085-0.666,0.19-0.968,0.318
	c-0.34,0.144-0.628,0.308-0.864,0.494v0l-0.009,0.007c-0.015,0.011-0.046,0.027-0.095,0.049c-0.083,0.035-0.202,0.072-0.356,0.11
	c-0.108,0.026-0.186,0.043-0.229,0.054l-0.011,0.001l-0.028,0.005c-0.009,0.002-0.019,0.003-0.027,0.005l-0.04,0.008l-0.021,0.002
	l-0.01,0.002v0.003c-0.036,0.007-0.073,0.014-0.109,0.023c-0.735,0.193-1.175,0.945-0.982,1.68c0.129,0.493,0.249,1,0.362,1.522
	c0.1,0.464,0.198,0.977,0.296,1.539c0,0.012,0.003,0.025,0.004,0.037c0.041,0.245,0.096,0.537,0.164,0.876
	c0.073,0.36,0.137,0.649,0.188,0.861l0.004,0C109.435,81.668,109.637,82.345,109.859,82.951L109.859,82.951z M100.571,49.895
	l-2.163-8.834l0.004-0.006l0.002-0.002l0.002-0.003l0.002-0.002l0.028-0.048l0.002-0.002l0.002-0.003l0.013-0.021l0.002-0.002
	l0.001-0.003l0.004-0.006l0.002-0.003l0.009-0.011l0.001-0.003l0.004-0.006l0.001-0.003l0.003-0.002l0.001-0.002l0.004-0.005
	l0.001-0.001l0.002-0.003l0.001-0.003l0.002-0.003l0.001-0.001l0.001-0.002l0.002-0.002l0.002-0.003l0.002-0.002l0.002-0.003
	l0.006-0.008l0.002-0.003l0.002-0.004l0.005-0.007l0.002-0.004c0.426-0.644,1.022-1.187,1.792-1.63
	c0.525,0.427,0.972,0.802,1.339,1.124c0.494,0.433,0.854,0.778,1.08,1.036c0.01,0.012,0.021,0.024,0.032,0.036
	c0.367,0.411,0.869,1.113,1.5,2.102c0.165,0.258,0.295,0.465,0.39,0.621c0.129,0.209,0.27,0.439,0.42,0.69v0l0.008,0.014
	l0.002,0.001h0.001c0.23,0.377,0.64,0.635,1.114,0.655h0.004l0.004,0.001l0.024,0h0.005l0.012,0h0.005l0.01,0.001h0.002l0.003,0
	l0.005,0h0.008l0,0l0.004,0l0.012,0.001h0.001h0.004l0.157,0.006l1.005,4.104c-0.1-0.01-0.201-0.02-0.306-0.029l-0.007,0
	c-0.619-0.051-1.304-0.072-2.053-0.061l-0.09,0.001l-0.089,0.002l-0.039,0.001l-0.08,0.001l-0.013,0l-0.082,0.002h-0.005
	l-0.098,0.003l-0.018,0.001l-0.081,0.002l-0.012,0.001l-0.084,0.003h-0.003l-0.086,0.002l-0.075,0.004l-0.119,0.005l-0.021,0.001
	l-0.055,0.003l-0.016,0l-0.087,0.004l-0.035,0.002h-0.013l-0.014,0.002c-0.186,0.009-0.374,0.022-0.565,0.035
	c-0.085,0.006-0.17,0.012-0.255,0.019h-0.01l-0.136,0.01h-0.002c-0.128,0.011-0.257,0.021-0.388,0.033
	c-0.077,0.007-0.155,0.013-0.234,0.021l-0.014,0.001l-0.108,0.011l-0.149,0.014l-0.003,0l-0.081,0.008l-0.022,0.001l-0.093,0.009
	l-0.113,0.013h-0.002c-0.155,0.017-0.313,0.034-0.472,0.052l-0.062,0.006l-0.001,0l-0.011,0.001l-0.01,0.002l-0.01,0.001h-0.001
	l-0.01,0.001l-0.011,0l-0.009,0.001h-0.001l-0.012,0.001l-0.01,0.001l-0.025,0.002l-0.045,0.005l-0.003,0.001l-0.094,0.011
	l-0.011,0.002l-0.011,0.001h-0.005c-0.083,0.01-0.165,0.02-0.248,0.031h-0.003L100.571,49.895L100.571,49.895L100.571,49.895z
	 M96.247,32.233l-1.941-7.928l3.662-13.469l5.139,20.987l0,0c-0.051-0.021-0.098-0.042-0.148-0.063v-0.001l-0.003-0.001l-0.002,0
	c-0.024-0.01-0.049-0.02-0.072-0.029l-0.002-0.001l-0.013-0.005l-0.005-0.002l-0.015-0.005l0,0v0l-0.006-0.002l-0.016-0.006
	l-0.001,0l-0.004-0.001v0l-0.004-0.001l-0.01-0.004l-0.001,0.003l-0.004-0.002c-0.32-0.123-0.637-0.221-0.947-0.293l-0.001,0
	c-0.631-0.146-1.242-0.22-1.837-0.225c-0.612-0.003-1.203,0.065-1.774,0.205l0.002,0.005c-0.413,0.102-0.809,0.237-1.184,0.407
	l-0.017,0.007l-0.01,0.005l-0.007,0.003l-0.007,0.003l-0.01,0.004l-0.003,0.001l-0.004,0.002l-0.021,0.009l-0.002,0l-0.002,0.001
	l-0.011,0.005l-0.005,0.003l-0.004,0.001l-0.014,0.007l-0.003,0.001l-0.026,0.012l-0.003,0.001l-0.01,0.005l-0.006,0.002
	l-0.008,0.004l-0.008,0.004l-0.004,0.002l-0.013,0.006h-0.001l-0.013,0.006l-0.002,0.001l-0.011,0.005
	c-0.028,0.015-0.058,0.029-0.086,0.043l-0.005,0.002l0,0l-0.024,0.013l-0.002,0l-0.023,0.013L96.69,31.98l-0.005,0.002l-0.001,0
	l-0.023,0.014h-0.003l-0.011,0.006l-0.004,0.002l-0.009,0.005l-0.008,0.004l-0.005,0.002l-0.025,0.015l-0.001,0
	c-0.042,0.022-0.083,0.046-0.125,0.07H96.47c-0.041,0.023-0.082,0.048-0.123,0.072l0,0c-0.032,0.019-0.063,0.038-0.093,0.057
	L96.247,32.233L96.247,32.233z"/>
<path fill="#D80015" stroke="#FFFFFF" stroke-width="8" stroke-linecap="round" stroke-linejoin="round" stroke-miterlimit="10" d="
	M125.488,46.224l-1.37,0.706c-0.323,3.486-0.228,6.628,0.299,9.418l3.762-2.153c1.313-0.751,2.13-2.38,3.329-3.327
	c-0.928-1.279-1.812-2.22-2.647-2.817C128.303,47.642,127.18,47.033,125.488,46.224L125.488,46.224z M48.973,85.654l-0.057,0.015
	c-1.448,0.354-2.895,0.562-4.338,0.632c-2.944,0.138-5.327-0.677-7.125-2.429c-1.781-7.271-1.103-14.013,2.029-20.242
	c3.179-6.378,8.27-10.803,15.265-13.265l0.001,0.013c0.037-0.013,0.074-0.026,0.111-0.041l0.175,2.469
	c0.057,0.827,0.137,1.64,0.223,2.439c-3.066,1.318-5.244,2.417-6.531,3.28c-2.603,1.751-3.906,3.632-3.908,5.669
	c0.005,0.657,0.096,1.365,0.282,2.124c0.289,1.18,0.799,2.48,1.541,3.905c1.225,2.356,2.702,5.371,4.443,9.049
	c3.835-1.314,6.424-2.52,7.75-3.604c1.774-1.412,3.275-3.862,4.514-7.344l0.007-0.001c0.443-1.58,1.291-3.193,2.474-4.877
	c2.284-3.252,3.975-6.322,5.644-8.832l1.042-3.707c0.034,0.003,0.068,0.005,0.102,0.005l0.009-0.032
	c0.085,0.009,0.168,0.005,0.253-0.01c0.875-0.263,1.729-1.673,2.682-1.859c0.125-0.037,0.252-0.054,0.381-0.045
	c1.786,3.118,2.981,7.167,5.845,10.729c1.478,1.838,4.117,4.895,7.902,9.182c0.157,0.114,0.309,0.198,0.448,0.244
	c2.754,0.885,7.518,1.299,8.156,1.245c0.396-0.034,0.764-0.09,1.106-0.171c0.091-0.024,0.178-0.048,0.266-0.074
	c1.181-0.362,2.811-0.942,4.892-1.764c-0.188-1.142-0.398-2.186-0.625-3.108c-0.687-2.808-1.525-4.667-2.513-5.566
	c-1.187-1.061-3.552-1.549-7.114-1.462c-0.24,0.006-0.434,0.028-0.591,0.062c-1.168,0.333,0.083,1.481-0.799,1.629
	c-0.189,0.065-0.523,0.062-1.097-0.049c-0.294-0.058-0.518-0.172-1.073-0.284c-0.486-0.098,0.313-1.615-1.928-2.373L88.489,55.2
	c-0.106-0.659-0.199-1.339-0.264-2.054c1.226-1.031-0.131-1.18,0.242-2.649c0.117-0.465,1.019-2.975,1.761-4.725
	c0.029-0.549,0.152-1.138,0.77-1.586c0.026-0.038,0.051-0.071,0.073-0.094c0.934-5.133,2.788-8.639,5.563-10.514
	c0.563-0.384,1.172-0.661,1.827-0.821l0.057-0.014l0.055-0.014c0.931-0.228,1.917-0.224,2.972,0.021
	c1.803,0.417,3.776,1.879,5.925,4.386c1.085,2.675,1.714,4.311,1.893,4.889c0.177,0.578,0.26,1.288,0.256,2.129l-0.111,0.006v0.021
	c-0.992,0.051-2.108,0.042-3.355-0.01c-1.049-1.752-1.876-2.965-2.468-3.625c-0.531-0.615-1.63-1.573-3.286-2.893
	c-2.676,1.216-4.051,3.327-4.125,6.343c-0.06,2.444,0.136,4.579,0.584,6.414c0.121,0.492,0.25,0.944,0.392,1.375
	c5.391-0.928,9.18-1.114,11.369-0.564c3.426,0.896,5.699,3.618,6.817,8.184c-0.626,1.88-1.877,3.967-3.761,6.274
	c-1.699,2.088-3.45,3.813-5.24,5.156c-1.671,1.268-3.339,2.105-5.001,2.513l-0.058,0.013l-0.055,0.014
	c-0.423,0.104-0.842,0.179-1.26,0.227c-0.519,0.062-1.014,0.036-1.483-0.072c-0.604-0.14-6.701-1.395-8.807-2.093v0.022h-0.112
	v0.027l-4.525,0.005l0.002,1.204c-0.039-0.005-0.076-0.013-0.111-0.02v0.047c-0.905-0.127-0.828-1.04-1.998-1.318
	c-0.545-1.073-0.906-2.252-1.575-3.26l-2.129-3.212c-1.42,0.003-2.92,0.156-5.673,0.571c-0.592,0.089-1.158,0.207-1.694,0.336
	c-1.258,0.311-2.354,0.684-3.261,0.903c-0.47,0.117-0.89,0.196-1.259,0.209c-0.279,0.708-0.485,1.224-0.599,1.546l-0.83,0.858
	c-0.182,0.685-0.08,1.51-0.163,2.315c-0.04,0.385-0.313,0.991-0.556,1.481l-0.015-0.004c-0.746,2.084-2.208,4.122-4.374,6.105
	c-2.157,1.971-4.629,3.59-7.41,4.838c-1.489,0.666-2.979,1.186-4.461,1.549L48.973,85.654L48.973,85.654z M76.777,62.072
	c-0.185-1.193-0.458-2.143-0.82-2.842c-0.238-0.476-0.796-1.29-1.675-2.444l-1.157,0.001c-1.44,2.266-3.473,5.337-4.091,7.424
	l4.304-1.497c0.208-0.072,0.42-0.133,0.635-0.182C74.883,62.302,75.844,62.245,76.777,62.072L76.777,62.072z M144.427,57.946
	l-0.11,0.027c-1.273-0.922-1.514-2.729-2.928-3.435l-4.55-2.275c-1.643,0.856-3.91,2.333-6.814,4.416
	c-2.945,2.125-5.221,3.596-6.831,4.424c0.101,1.008-0.619,1.325-0.557,1.771l-0.675,1.168c0.245,1.11,0.494,2.199,0.749,3.275
	l0.78,3.221l-1.452,0.746l-0.013-0.023l-0.098,0.05c-0.223-0.354-0.437-0.732-0.64-1.126c-1.503-2.919-2.057-6.654-1.68-11.209
	c0.253-3.068,1.595-5.498,1.851-8.123c0.176-1.796-0.739-3.906-0.559-5.495l-2.444-7.422c1.336-0.507,2.717-1.08,4.153-1.7
	l0.02,0.014l0.092-0.041c2.519,1.638,4.087,4.017,7.223,5.606c1.762,0.892,4.875,1.015,6.832,1.886
	c1.247,0.556,2.756,2.507,4.82,3.351c2.616,1.069,6.04,1.119,9.967,2.656l1.49,2.896l-5.38,2.769l0.735,1.428
	C147.283,57.194,145.95,57.571,144.427,57.946L144.427,57.946L144.427,57.946z"/>
<path fill="#D80015" d="M125.488,46.224l-1.37,0.706c-0.323,3.486-0.228,6.628,0.299,9.418l3.762-2.153
	c1.313-0.751,2.13-2.38,3.329-3.327c-0.928-1.279-1.812-2.22-2.647-2.817C128.303,47.642,127.18,47.033,125.488,46.224
	L125.488,46.224z M48.973,85.654l-0.057,0.015c-1.448,0.354-2.895,0.562-4.338,0.632c-2.944,0.138-5.327-0.677-7.125-2.429
	c-1.781-7.271-1.103-14.013,2.029-20.242c3.179-6.378,8.27-10.803,15.265-13.265l0.001,0.013c0.037-0.013,0.074-0.026,0.111-0.041
	l0.175,2.469c0.057,0.827,0.137,1.64,0.223,2.439c-3.066,1.318-5.244,2.417-6.531,3.28c-2.603,1.751-3.906,3.632-3.908,5.669
	c0.005,0.657,0.096,1.365,0.282,2.124c0.289,1.18,0.799,2.48,1.541,3.905c1.225,2.356,2.702,5.371,4.443,9.049
	c3.835-1.314,6.424-2.52,7.75-3.604c1.774-1.412,3.275-3.862,4.514-7.344l0.007-0.001c0.443-1.58,1.291-3.193,2.474-4.877
	c2.284-3.252,3.975-6.322,5.644-8.832l1.042-3.707c0.034,0.003,0.068,0.005,0.102,0.005l0.009-0.032
	c0.085,0.009,0.168,0.005,0.253-0.01c0.875-0.263,1.729-1.673,2.682-1.859c0.125-0.037,0.252-0.054,0.381-0.045
	c1.786,3.118,2.981,7.167,5.845,10.729c1.478,1.838,4.117,4.895,7.902,9.182c0.157,0.114,0.309,0.198,0.448,0.244
	c2.754,0.885,7.518,1.299,8.156,1.245c0.396-0.034,0.764-0.09,1.106-0.171c0.091-0.024,0.178-0.048,0.266-0.074
	c1.181-0.362,2.811-0.942,4.892-1.764c-0.188-1.142-0.398-2.186-0.625-3.108c-0.687-2.808-1.525-4.667-2.513-5.566
	c-1.187-1.061-3.552-1.549-7.114-1.462c-0.24,0.006-0.434,0.028-0.591,0.062c-1.168,0.333,0.083,1.481-0.799,1.629
	c-0.189,0.065-0.523,0.062-1.097-0.049c-0.294-0.058-0.518-0.172-1.073-0.284c-0.486-0.098,0.313-1.615-1.928-2.373L88.489,55.2
	c-0.106-0.659-0.199-1.339-0.264-2.054c1.226-1.031-0.131-1.18,0.242-2.649c0.117-0.465,1.019-2.975,1.761-4.725
	c0.029-0.549,0.152-1.138,0.77-1.586c0.026-0.038,0.051-0.071,0.073-0.094c0.934-5.133,2.788-8.639,5.563-10.514
	c0.563-0.384,1.172-0.661,1.827-0.821l0.057-0.014l0.055-0.014c0.931-0.228,1.917-0.224,2.972,0.021
	c1.803,0.417,3.776,1.879,5.925,4.386c1.085,2.675,1.714,4.311,1.893,4.889c0.177,0.578,0.26,1.288,0.256,2.129l-0.111,0.006v0.021
	c-0.992,0.051-2.108,0.042-3.355-0.01c-1.049-1.752-1.876-2.965-2.468-3.625c-0.531-0.615-1.63-1.573-3.286-2.893
	c-2.676,1.216-4.051,3.327-4.125,6.343c-0.06,2.444,0.136,4.579,0.584,6.414c0.121,0.492,0.25,0.944,0.392,1.375
	c5.391-0.928,9.18-1.114,11.369-0.564c3.426,0.896,5.699,3.618,6.817,8.184c-0.626,1.88-1.877,3.967-3.761,6.274
	c-1.699,2.088-3.45,3.813-5.24,5.156c-1.671,1.268-3.339,2.105-5.001,2.513l-0.058,0.013l-0.055,0.014
	c-0.423,0.104-0.842,0.179-1.26,0.227c-0.519,0.062-1.014,0.036-1.483-0.072c-0.604-0.14-6.701-1.395-8.807-2.093v0.022h-0.112
	v0.027l-4.525,0.005l0.002,1.204c-0.039-0.005-0.076-0.013-0.111-0.02v0.047c-0.905-0.127-0.828-1.04-1.998-1.318
	c-0.545-1.073-0.906-2.252-1.575-3.26l-2.129-3.212c-1.42,0.003-2.92,0.156-5.673,0.571c-0.592,0.089-1.158,0.207-1.694,0.336
	c-1.258,0.311-2.354,0.684-3.261,0.903c-0.47,0.117-0.89,0.196-1.259,0.209c-0.279,0.708-0.485,1.224-0.599,1.546l-0.83,0.858
	c-0.182,0.685-0.08,1.51-0.163,2.315c-0.04,0.385-0.313,0.991-0.556,1.481l-0.015-0.004c-0.746,2.084-2.208,4.122-4.374,6.105
	c-2.157,1.971-4.629,3.59-7.41,4.838c-1.489,0.666-2.979,1.186-4.461,1.549L48.973,85.654L48.973,85.654z M76.777,62.072
	c-0.185-1.193-0.458-2.143-0.82-2.842c-0.238-0.476-0.796-1.29-1.675-2.444l-1.157,0.001c-1.44,2.266-3.473,5.337-4.091,7.424
	l4.304-1.497c0.208-0.072,0.42-0.133,0.635-0.182C74.883,62.302,75.844,62.245,76.777,62.072L76.777,62.072z M144.427,57.946
	l-0.11,0.027c-1.273-0.922-1.514-2.729-2.928-3.435l-4.55-2.275c-1.643,0.856-3.91,2.333-6.814,4.416
	c-2.945,2.125-5.221,3.596-6.831,4.424c0.101,1.008-0.619,1.325-0.557,1.771l-0.675,1.168c0.245,1.11,0.494,2.199,0.749,3.275
	l0.78,3.221l-1.452,0.746l-0.013-0.023l-0.098,0.05c-0.223-0.354-0.437-0.732-0.64-1.126c-1.503-2.919-2.057-6.654-1.68-11.209
	c0.253-3.068,1.595-5.498,1.851-8.123c0.176-1.796-0.739-3.906-0.559-5.495l-2.444-7.422c1.336-0.507,2.717-1.08,4.153-1.7
	l0.02,0.014l0.092-0.041c2.519,1.638,4.087,4.017,7.223,5.606c1.762,0.892,4.875,1.015,6.832,1.886
	c1.247,0.556,2.756,2.507,4.82,3.351c2.616,1.069,6.04,1.119,9.967,2.656l1.49,2.896l-5.38,2.769l0.735,1.428
	C147.283,57.194,145.95,57.571,144.427,57.946L144.427,57.946L144.427,57.946z"/>
<polygon fill-rule="evenodd" clip-rule="evenodd" fill="#D80015" points="97.706,7.303 87.836,43.602 62.422,15.943 97.706,7.303 
	"/>
<polygon fill="#FFFFFF" points="88.016,21.673 84.806,23.93 85.905,28.42 82.822,25.326 79.611,27.581 80.916,23.412 77.832,20.317 
	81.722,20.836 83.027,16.667 84.126,21.156 88.016,21.673 "/>
<path fill="#D80015" stroke="#FFFFFF" stroke-width="6" stroke-linecap="round" stroke-linejoin="round" stroke-miterlimit="10" d="
	M151.266,72.588c-0.184,0.814-0.7,1.607-1.539,2.376c-0.704,0.643-1.51,1.171-2.419,1.578c-0.479,0.216-0.956,0.384-1.43,0.5
	l-0.056,0.014l-0.056,0.014c-0.488,0.12-0.969,0.189-1.439,0.212c-0.961,0.044-1.738-0.22-2.326-0.793
	c-0.58-2.372-0.359-4.573,0.663-6.605c1.036-2.08,2.698-3.523,4.979-4.328l0.002,0.012c0.035-0.012,0.072-0.025,0.109-0.039
	l0.059,0.805c0.018,0.27,0.044,0.535,0.072,0.796c-1,0.43-1.712,0.789-2.131,1.07c-0.849,0.572-1.274,1.185-1.275,1.849
	c0.002,0.215,0.032,0.446,0.093,0.693c0.094,0.385,0.26,0.81,0.502,1.275c0.398,0.768,0.88,1.748,1.445,2.946
	c1.213-0.419,2.034-0.804,2.458-1.152c0.579-0.46,1.068-1.259,1.473-2.396l0.111-0.027l0.4-0.099l0.11-0.027
	C151.132,71.75,151.197,72.194,151.266,72.588L151.266,72.588z M43.573,94.97c-0.134-0.317-0.273-0.691-0.411-1.122
	c-1.228-0.061-2.399,0.045-3.521,0.32c-1.114,0.272-2.174,0.714-3.179,1.32l0.503,2.37c0.065,0.289,0.127,0.559,0.189,0.812
	c0.17,0.692,0.37,1.338,0.598,1.941c0.154,0.409,0.365,0.955,0.637,1.64c1.113-0.469,2.133-1.532,3.061-3.185
	C42.159,97.699,42.867,96.334,43.573,94.97L43.573,94.97z M44.795,94.396c-0.987,2.734-2.275,5.098-3.857,7.091
	c-0.126,1.124-1.119,1.915-2.974,2.369c-0.185-0.095-0.398-0.224-0.637-0.395c-0.112,0.064-0.321,0.163-0.62,0.292
	c-0.004,0.213-0.005,0.392,0.002,0.542l-1.55,0.38l-0.667-2.447c-0.081-0.278-0.152-0.553-0.22-0.828
	c-0.082-0.335-0.158-0.667-0.228-1c-0.2-0.94-0.531-2.753-0.993-5.442c0.317-0.018,0.629-0.048,0.937-0.098
	c0.07,0.165,0.154,0.326,0.25,0.489c1.55-0.873,3.027-1.525,4.431-1.948c0.308-0.094,0.626-0.181,0.958-0.262
	c1.184-0.289,2.525-0.505,4.023-0.646l0.127,0.52c0.245,0.052,0.479,0.082,0.704,0.099L44.795,94.396L44.795,94.396z M59.023,98.125
	c-0.798,0.055-1.558,0.172-2.29,0.351c-0.708,0.175-1.387,0.407-2.037,0.699c-1.313,0.59-2.591,1.258-3.839,2.008
	c-0.3,0.01-0.615,0.007-0.937-0.005c-0.036-0.291-0.047-0.729-0.033-1.319c0.012-0.593-0.002-1.043-0.042-1.352
	c-0.335-0.746-0.806-1.877-1.409-3.392c-0.128-0.365-0.24-0.726-0.333-1.081c-0.092-0.35-0.206-0.82-0.345-1.408
	c-0.47-0.252-0.854-0.471-1.154-0.649c-0.052-0.164-0.1-0.334-0.143-0.508l-0.129-0.528c1.841-0.917,3.473-1.646,4.891-2.194
	c1.006-0.383,1.972-0.688,2.895-0.908c0.925-0.214,1.629-0.223,2.106-0.027c-0.012,0.209-0.018,0.514-0.01,0.921l-1.839,0.397
	c-0.855,0.196-1.553,0.396-2.097,0.6c-0.311,0.118-0.716,0.274-1.221,0.466c-0.009,0.473,0.021,0.864,0.085,1.174
	c0.06,0.319,0.282,1.186,0.665,2.605c0.896-0.313,1.506-0.509,1.829-0.588c0.325-0.074,1.015-0.177,2.063-0.313
	c0.237,0.188,0.399,0.389,0.488,0.604c0.026,0.058,0.101,0.315,0.226,0.773c-1.066,0.077-1.759,0.145-2.081,0.206
	c-0.326,0.068-0.938,0.26-1.833,0.571c0.195,0.87,0.398,1.735,0.608,2.59c1.551-0.395,2.582-0.688,3.092-0.881
	c0.268-0.098,0.537-0.181,0.804-0.245c0.248-0.061,0.498-0.108,0.752-0.14c0.24,0.241,0.479,0.483,0.719,0.72
	C58.729,97.559,58.913,97.844,59.023,98.125L59.023,98.125z M127.432,82.448c-0.02,0.005-0.037,0.009-0.056,0.014
	c-0.138,0.034-0.274,0.059-0.411,0.074c-0.678,0.079-1.226-0.284-1.646-1.09c0.046,0.006,0.09,0.012,0.134,0.018l-0.023-0.044
	c0.545,0.073,0.995,0.072,1.356-0.005c0.018-0.006,0.034-0.011,0.052-0.015c0.384-0.118,0.915-0.309,1.596-0.577
	c-0.062-0.372-0.131-0.713-0.204-1.013c-0.225-0.917-0.498-1.525-0.82-1.817c-0.423-0.378-1.304-0.533-2.65-0.464l0.116,0.473
	c-0.039,0.006-0.077,0.011-0.115,0.017l0.005,0.011c-0.545,0.079-1,0.084-1.361,0.008c-0.16-0.028-0.602-0.167-1.333-0.416
	l-0.106-0.653c-0.037-0.214-0.064-0.436-0.086-0.671c0.4-0.336,0.662-0.743,0.782-1.222c0.007-0.022,0.072-0.516,0.2-1.471
	c0.257-0.156,0.649-0.388,1.173-0.698c0.306-1.675,0.911-2.818,1.816-3.431c0.183-0.125,0.381-0.215,0.596-0.268
	c0.019-0.004,0.037-0.009,0.057-0.013c0.018-0.005,0.034-0.01,0.054-0.014c0.304-0.074,0.625-0.072,0.971,0.006
	c0.587,0.136,1.231,0.614,1.933,1.431c0.354,0.873,0.559,1.407,0.617,1.596c0.058,0.188,0.084,0.419,0.083,0.694
	c-0.036,0.002-0.072,0.004-0.11,0.005v0.022c-0.325,0.017-0.688,0.014-1.096-0.002c-0.343-0.571-0.612-0.968-0.805-1.184
	c-0.174-0.198-0.525-0.507-1.059-0.933c-0.834,0.401-1.261,1.081-1.285,2.042c-0.02,0.797,0.045,1.494,0.19,2.093
	c0.04,0.159,0.082,0.308,0.128,0.448c1.759-0.303,2.994-0.364,3.71-0.185c1.117,0.293,1.859,1.181,2.225,2.67
	c-0.205,0.615-0.613,1.295-1.228,2.048c-0.555,0.681-1.126,1.244-1.71,1.682c-0.545,0.414-1.089,0.688-1.632,0.819
	C127.47,82.439,127.449,82.443,127.432,82.448L127.432,82.448z M137.594,79.24c-0.018,0.004-0.037,0.01-0.054,0.014
	c-0.667,0.163-1.379,0.162-2.14,0l-1.941-9.606c0.602-0.183,1.143-0.36,1.623-0.537l0.014,0.008l0.099-0.036
	c0.24,0.156,0.537,0.565,0.893,1.229c0.272,0.513,0.666,1.292,1.187,2.348l2.22,4.501c-0.185,1.023-0.666,1.67-1.445,1.942
	c-0.126,0.049-0.26,0.09-0.397,0.123C137.631,79.231,137.612,79.235,137.594,79.24L137.594,79.24z M158.299,69.027
	c-0.196-0.477-0.405-0.842-0.626-1.095c-0.146-0.172-0.46-0.454-0.938-0.843l-0.519,0.127c-0.368,1.086-0.577,2.093-0.62,3.021
	l1.346-0.601C157.394,69.439,157.848,69.237,158.299,69.027L158.299,69.027z M164.965,71.219l-1.916,0.47l0.124,0.508
	c-0.388,0.039-0.839,0.057-1.35,0.059c-0.334-0.389-0.662-0.786-0.98-1.19l-0.967-1.196c-0.588,0.144-1.43,0.442-2.526,0.89
	c-1.097,0.451-1.93,0.744-2.504,0.884c-0.045,0.328-0.08,0.566-0.095,0.712l-0.52,0.127c-0.009,0.371-0.011,0.736-0.012,1.097
	l0.003,1.08l-0.518,0.127c-0.044-0.13-0.083-0.266-0.118-0.407c-0.255-1.039-0.146-2.267,0.32-3.683
	c0.527-1.608,1.008-3.016,1.445-4.223l-0.211-2.54c0.463-0.059,0.944-0.135,1.447-0.224c1.053,1.111,2.347,2.259,3.89,3.446
	c0.802,0.615,2.215,1.624,4.234,3.03L164.965,71.219L164.965,71.219z M75.27,92.854l-0.111,0.027v0.001
	c-0.824,0.194-1.567,0.359-2.232,0.489c0.018,0.17,0.032,0.341,0.046,0.516c-0.475,0.129-1.194,0.439-2.161,0.933
	c-0.835,0.422-1.528,0.697-2.078,0.825h0c-0.037,0.009-0.073,0.018-0.109,0.025c-0.041,0.12-0.075,0.234-0.107,0.346l-0.092,0.329
	l-0.106,0.007l-0.005,0.021c-0.569,0.034-1.057,0.045-1.46,0.027c-0.132-0.579-0.342-1.361-0.636-2.342
	c-0.332-1.125-0.554-1.902-0.667-2.333c-0.685-2.674-0.95-4.504-0.802-5.491c0.767-0.359,1.411-0.651,1.932-0.871
	c0.153-0.067,0.325-0.125,0.517-0.172c0.019-0.005,0.038-0.009,0.057-0.014c0.019-0.005,0.037-0.01,0.055-0.014
	c0.456-0.111,1.019-0.173,1.693-0.179c0.15,1.513,0.233,3.107,0.253,4.783c0.011,0.76,0.098,1.469,0.26,2.13
	c0.194,0.793,0.498,1.519,0.909,2.171c0.193-0.091,0.456-0.212,0.787-0.36c-0.001-0.128,0.033-0.246,0.107-0.354
	c0.072-0.106,0.111-0.228,0.121-0.357c0.362-0.211,0.906-0.532,1.631-0.966c0.026-0.25,0.053-0.434,0.076-0.542
	c0.035-0.006,0.071-0.013,0.11-0.019l0.001-0.01c0.353-0.056,0.877-0.155,1.571-0.29c0.065,0.288,0.134,0.571,0.208,0.85
	C75.114,92.299,75.19,92.575,75.27,92.854L75.27,92.854z M80.694,86.101l-0.406,0.1c-0.366,1.075-0.576,2.075-0.621,2.998
	l1.233-0.55c0.452-0.198,0.906-0.401,1.358-0.61c-0.197-0.476-0.406-0.843-0.626-1.096C81.486,86.77,81.172,86.489,80.694,86.101
	L80.694,86.101z M87.128,91.19l0.004,0.017c-0.387,0.038-0.838,0.056-1.35,0.061c-0.334-0.391-0.66-0.787-0.98-1.191l-0.965-1.195
	c-0.582,0.151-1.386,0.44-2.417,0.861c-1.097,0.45-1.931,0.744-2.505,0.884c-0.044,0.328-0.079,0.565-0.093,0.712l-0.112,0.028
	l-0.409,0.1c-0.008,0.371-0.011,0.734-0.011,1.096l0.002,1.081l-0.112,0.028l-0.406,0.099l-0.112,0.027
	c-0.043-0.13-0.083-0.265-0.117-0.406c-0.254-1.041-0.147-2.269,0.319-3.684c0.527-1.608,1.008-3.017,1.446-4.223l-0.212-2.542
	l0.113-0.013l-0.002-0.014c0.463-0.06,0.944-0.135,1.448-0.222c1.052,1.109,2.347,2.259,3.889,3.444
	c0.804,0.614,2.215,1.624,4.235,3.03l0.252,1.033l-0.112,0.026l-1.806,0.442l0.124,0.509C87.206,91.183,87.168,91.188,87.128,91.19
	L87.128,91.19z M109.644,85.519c-0.282,0.123-0.57,0.235-0.857,0.342l-0.015-0.012l-0.122,0.046
	c-0.584-0.45-1.085-0.929-1.514-1.436c-0.476-0.567-1.632-2.04-3.468-4.426c-0.132,0.01-0.268,0.014-0.407,0.012l0.726,7.402
	c-0.046,0.003-0.093,0.005-0.139,0.006l0.002,0.028c-0.788,0.052-1.487-0.227-2.097-0.84c-0.362-0.361-0.602-0.579-0.714-0.664
	c-0.27-0.195-0.571-0.303-0.906-0.319c-0.119-0.171-0.332-0.481-0.641-0.935c-0.177-0.012-0.36-0.034-0.549-0.068
	c0.241,0.853,0.488,1.683,0.737,2.485c-0.15,0.652-0.238,1.071-0.27,1.252c-0.072,0.449-0.094,0.871-0.063,1.271
	c-0.047-0.01-0.095-0.021-0.142-0.028c0.002,0.021,0.004,0.041,0.006,0.062c-1.287-0.276-2.487-0.343-3.604-0.198
	c-0.082-0.26-0.156-0.528-0.223-0.801c-0.314-1.284-0.469-2.701-0.457-4.252c0.009-1.872-0.067-3.656-0.228-5.357l0.496-0.176
	c0.168-0.056,0.334-0.123,0.503-0.2l0.025,0.016c0.037-0.016,0.074-0.032,0.111-0.05c0.302,0.188,0.607,0.57,0.918,1.146
	c0.218,0.441,0.434,0.886,0.648,1.334c0.783,0.702,1.566,1.406,2.35,2.112c0.94,0.767,1.793,1.188,2.564,1.264
	c-0.204-1.891-0.315-3.13-0.334-3.724c-0.04-1.432,0.095-2.677,0.414-3.739c0.047-0.012,0.092-0.021,0.135-0.031V77.04
	c0.251-0.062,0.427-0.083,0.523-0.068c0.081,0.016,0.24,0.093,0.478,0.235c0.407,0.543,0.964,1.235,1.669,2.07
	c0.921,1.083,1.494,1.758,1.719,2.032C108.542,83.319,109.45,84.724,109.644,85.519L109.644,85.519z M100.979,87.642l-0.002-0.001
	l-0.015,0.065c-0.028,0.115-0.019,0.078,0-0.001L100.979,87.642L100.979,87.642z M118.992,78.057
	c-0.001,1.617-0.005,2.526-0.013,2.725c-0.045,1.079-0.179,1.966-0.403,2.667c-0.508,1.603-1.722,2.64-3.63,3.107l-0.002-0.002
	c-0.045,0.012-0.089,0.023-0.135,0.035c-1.256-0.426-2.252-1.217-2.981-2.37c-0.541-0.856-1.002-2.056-1.378-3.593
	c-0.13-0.531-0.239-1.077-0.332-1.638c-0.191-1.113-0.422-2.182-0.693-3.219c0.047-0.008,0.094-0.015,0.139-0.024l-0.002-0.008
	c0.136-0.023,0.266-0.05,0.386-0.077c0.403-0.105,0.708-0.24,0.916-0.407c0.292-0.229,0.729-0.414,1.312-0.556l0.003,0.001
	c0.044-0.011,0.087-0.023,0.135-0.034c0.36,0.223,0.649,0.755,0.86,1.594c0.213,0.846,0.427,1.793,0.646,2.845
	c0.104,0.494,0.216,0.985,0.334,1.472c0.14,0.567,0.289,1.13,0.45,1.69c0.3,1.035,0.721,1.876,1.263,2.524
	c1.296-0.809,1.969-2.028,2.016-3.658c0.022-0.623-0.037-1.22-0.175-1.784c-0.229-0.939-0.679-1.786-1.347-2.543l-0.884-3.607
	c0.139-0.237,0.251-0.377,0.332-0.421c0.032-0.018,0.086-0.032,0.163-0.046c0.094-0.036,0.296-0.061,0.608-0.074
	c0.517,0.737,1.011,1.715,1.479,2.939C118.283,76.182,118.593,77.003,118.992,78.057L118.992,78.057z"/>
<path fill="#D80015" d="M151.266,72.588c-0.184,0.814-0.7,1.607-1.539,2.376c-0.704,0.643-1.51,1.171-2.419,1.578
	c-0.479,0.216-0.956,0.384-1.43,0.5l-0.056,0.014l-0.056,0.014c-0.488,0.12-0.969,0.189-1.439,0.212
	c-0.961,0.044-1.738-0.22-2.326-0.793c-0.58-2.372-0.359-4.573,0.663-6.605c1.036-2.08,2.698-3.523,4.979-4.328l0.002,0.012
	c0.035-0.012,0.072-0.025,0.109-0.039l0.059,0.805c0.018,0.27,0.044,0.535,0.072,0.796c-1,0.43-1.712,0.789-2.131,1.07
	c-0.849,0.572-1.274,1.185-1.275,1.849c0.002,0.215,0.032,0.446,0.093,0.693c0.094,0.385,0.26,0.81,0.502,1.275
	c0.398,0.768,0.88,1.748,1.445,2.946c1.213-0.419,2.034-0.804,2.458-1.152c0.579-0.46,1.068-1.259,1.473-2.396l0.111-0.027
	l0.4-0.099l0.11-0.027C151.132,71.75,151.197,72.194,151.266,72.588L151.266,72.588z M43.573,94.97
	c-0.134-0.317-0.273-0.691-0.411-1.122c-1.228-0.061-2.399,0.045-3.521,0.32c-1.114,0.272-2.174,0.714-3.179,1.32l0.503,2.37
	c0.065,0.289,0.127,0.559,0.189,0.812c0.17,0.692,0.37,1.338,0.598,1.941c0.154,0.409,0.365,0.955,0.637,1.64
	c1.113-0.469,2.133-1.532,3.061-3.185C42.159,97.699,42.867,96.334,43.573,94.97L43.573,94.97z M44.795,94.396
	c-0.987,2.734-2.275,5.098-3.857,7.091c-0.126,1.124-1.119,1.915-2.974,2.369c-0.185-0.095-0.398-0.224-0.637-0.395
	c-0.112,0.064-0.321,0.163-0.62,0.292c-0.004,0.213-0.005,0.392,0.002,0.542l-1.55,0.38l-0.667-2.447
	c-0.081-0.278-0.152-0.553-0.22-0.828c-0.082-0.335-0.158-0.667-0.228-1c-0.2-0.94-0.531-2.753-0.993-5.442
	c0.317-0.018,0.629-0.048,0.937-0.098c0.07,0.165,0.154,0.326,0.25,0.489c1.55-0.873,3.027-1.525,4.431-1.948
	c0.308-0.094,0.626-0.181,0.958-0.262c1.184-0.289,2.525-0.505,4.023-0.646l0.127,0.52c0.245,0.052,0.479,0.082,0.704,0.099
	L44.795,94.396L44.795,94.396z M59.023,98.125c-0.798,0.055-1.558,0.172-2.29,0.351c-0.708,0.175-1.387,0.407-2.037,0.699
	c-1.313,0.59-2.591,1.258-3.839,2.008c-0.3,0.01-0.615,0.007-0.937-0.005c-0.036-0.291-0.047-0.729-0.033-1.319
	c0.012-0.593-0.002-1.043-0.042-1.352c-0.335-0.746-0.806-1.877-1.409-3.392c-0.128-0.365-0.24-0.726-0.333-1.081
	c-0.092-0.35-0.206-0.82-0.345-1.408c-0.47-0.252-0.854-0.471-1.154-0.649c-0.052-0.164-0.1-0.334-0.143-0.508l-0.129-0.528
	c1.841-0.917,3.473-1.646,4.891-2.194c1.006-0.383,1.972-0.688,2.895-0.908c0.925-0.214,1.629-0.223,2.106-0.027
	c-0.012,0.209-0.018,0.514-0.01,0.921l-1.839,0.397c-0.855,0.196-1.553,0.396-2.097,0.6c-0.311,0.118-0.716,0.274-1.221,0.466
	c-0.009,0.473,0.021,0.864,0.085,1.174c0.06,0.319,0.282,1.186,0.665,2.605c0.896-0.313,1.506-0.509,1.829-0.588
	c0.325-0.074,1.015-0.177,2.063-0.313c0.237,0.188,0.399,0.389,0.488,0.604c0.026,0.058,0.101,0.315,0.226,0.773
	c-1.066,0.077-1.759,0.145-2.081,0.206c-0.326,0.068-0.938,0.26-1.833,0.571c0.195,0.87,0.398,1.735,0.608,2.59
	c1.551-0.395,2.582-0.688,3.092-0.881c0.268-0.098,0.537-0.181,0.804-0.245c0.248-0.061,0.498-0.108,0.752-0.14
	c0.24,0.241,0.479,0.483,0.719,0.72C58.729,97.559,58.913,97.844,59.023,98.125L59.023,98.125z M127.432,82.448
	c-0.02,0.005-0.037,0.009-0.056,0.014c-0.138,0.034-0.274,0.059-0.411,0.074c-0.678,0.079-1.226-0.284-1.646-1.09
	c0.046,0.006,0.09,0.012,0.134,0.018l-0.023-0.044c0.545,0.073,0.995,0.072,1.356-0.005c0.018-0.006,0.034-0.011,0.052-0.015
	c0.384-0.118,0.915-0.309,1.596-0.577c-0.062-0.372-0.131-0.713-0.204-1.013c-0.225-0.917-0.498-1.525-0.82-1.817
	c-0.423-0.378-1.304-0.533-2.65-0.464l0.116,0.473c-0.039,0.006-0.077,0.011-0.115,0.017l0.005,0.011
	c-0.545,0.079-1,0.084-1.361,0.008c-0.16-0.028-0.602-0.167-1.333-0.416l-0.106-0.653c-0.037-0.214-0.064-0.436-0.086-0.671
	c0.4-0.336,0.662-0.743,0.782-1.222c0.007-0.022,0.072-0.516,0.2-1.471c0.257-0.156,0.649-0.388,1.173-0.698
	c0.306-1.675,0.911-2.818,1.816-3.431c0.183-0.125,0.381-0.215,0.596-0.268c0.019-0.004,0.037-0.009,0.057-0.013
	c0.018-0.005,0.034-0.01,0.054-0.014c0.304-0.074,0.625-0.072,0.971,0.006c0.587,0.136,1.231,0.614,1.933,1.431
	c0.354,0.873,0.559,1.407,0.617,1.596c0.058,0.188,0.084,0.419,0.083,0.694c-0.036,0.002-0.072,0.004-0.11,0.005v0.022
	c-0.325,0.017-0.688,0.014-1.096-0.002c-0.343-0.571-0.612-0.968-0.805-1.184c-0.174-0.198-0.525-0.507-1.059-0.933
	c-0.834,0.401-1.261,1.081-1.285,2.042c-0.02,0.797,0.045,1.494,0.19,2.093c0.04,0.159,0.082,0.308,0.128,0.448
	c1.759-0.303,2.994-0.364,3.71-0.185c1.117,0.293,1.859,1.181,2.225,2.67c-0.205,0.615-0.613,1.295-1.228,2.048
	c-0.555,0.681-1.126,1.244-1.71,1.682c-0.545,0.414-1.089,0.688-1.632,0.819C127.47,82.439,127.449,82.443,127.432,82.448
	L127.432,82.448z M137.594,79.24c-0.018,0.004-0.037,0.01-0.054,0.014c-0.667,0.163-1.379,0.162-2.14,0l-1.941-9.606
	c0.602-0.183,1.143-0.36,1.623-0.537l0.014,0.008l0.099-0.036c0.24,0.156,0.537,0.565,0.893,1.229
	c0.272,0.513,0.666,1.292,1.187,2.348l2.22,4.501c-0.185,1.023-0.666,1.67-1.445,1.942c-0.126,0.049-0.26,0.09-0.397,0.123
	C137.631,79.231,137.612,79.235,137.594,79.24L137.594,79.24z M158.299,69.027c-0.196-0.477-0.405-0.842-0.626-1.095
	c-0.146-0.172-0.46-0.454-0.938-0.843l-0.519,0.127c-0.368,1.086-0.577,2.093-0.62,3.021l1.346-0.601
	C157.394,69.439,157.848,69.237,158.299,69.027L158.299,69.027z M164.965,71.219l-1.916,0.47l0.124,0.508
	c-0.388,0.039-0.839,0.057-1.35,0.059c-0.334-0.389-0.662-0.786-0.98-1.19l-0.967-1.196c-0.588,0.144-1.43,0.442-2.526,0.89
	c-1.097,0.451-1.93,0.744-2.504,0.884c-0.045,0.328-0.08,0.566-0.095,0.712l-0.52,0.127c-0.009,0.371-0.011,0.736-0.012,1.097
	l0.003,1.08l-0.518,0.127c-0.044-0.13-0.083-0.266-0.118-0.407c-0.255-1.039-0.146-2.267,0.32-3.683
	c0.527-1.608,1.008-3.016,1.445-4.223l-0.211-2.54c0.463-0.059,0.944-0.135,1.447-0.224c1.053,1.111,2.347,2.259,3.89,3.446
	c0.802,0.615,2.215,1.624,4.234,3.03L164.965,71.219L164.965,71.219z M75.27,92.854l-0.111,0.027v0.001
	c-0.824,0.194-1.567,0.359-2.232,0.489c0.018,0.17,0.032,0.341,0.046,0.516c-0.475,0.129-1.194,0.439-2.161,0.933
	c-0.835,0.422-1.528,0.697-2.078,0.825h0c-0.037,0.009-0.073,0.018-0.109,0.025c-0.041,0.12-0.075,0.234-0.107,0.346l-0.092,0.329
	l-0.106,0.007l-0.005,0.021c-0.569,0.034-1.057,0.045-1.46,0.027c-0.132-0.579-0.342-1.361-0.636-2.342
	c-0.332-1.125-0.554-1.902-0.667-2.333c-0.685-2.674-0.95-4.504-0.802-5.491c0.767-0.359,1.411-0.651,1.932-0.871
	c0.153-0.067,0.325-0.125,0.517-0.172c0.019-0.005,0.038-0.009,0.057-0.014c0.019-0.005,0.037-0.01,0.055-0.014
	c0.456-0.111,1.019-0.173,1.693-0.179c0.15,1.513,0.233,3.107,0.253,4.783c0.011,0.76,0.098,1.469,0.26,2.13
	c0.194,0.793,0.498,1.519,0.909,2.171c0.193-0.091,0.456-0.212,0.787-0.36c-0.001-0.128,0.033-0.246,0.107-0.354
	c0.072-0.106,0.111-0.228,0.121-0.357c0.362-0.211,0.906-0.532,1.631-0.966c0.026-0.25,0.053-0.434,0.076-0.542
	c0.035-0.006,0.071-0.013,0.11-0.019l0.001-0.01c0.353-0.056,0.877-0.155,1.571-0.29c0.065,0.288,0.134,0.571,0.208,0.85
	C75.114,92.299,75.19,92.575,75.27,92.854L75.27,92.854z M80.694,86.101l-0.406,0.1c-0.366,1.075-0.576,2.075-0.621,2.998
	l1.233-0.55c0.452-0.198,0.906-0.401,1.358-0.61c-0.197-0.476-0.406-0.843-0.626-1.096C81.486,86.77,81.172,86.489,80.694,86.101
	L80.694,86.101z M87.128,91.19l0.004,0.017c-0.387,0.038-0.838,0.056-1.35,0.061c-0.334-0.391-0.66-0.787-0.98-1.191l-0.965-1.195
	c-0.582,0.151-1.386,0.44-2.417,0.861c-1.097,0.45-1.931,0.744-2.505,0.884c-0.044,0.328-0.079,0.565-0.093,0.712l-0.112,0.028
	l-0.409,0.1c-0.008,0.371-0.011,0.734-0.011,1.096l0.002,1.081l-0.112,0.028l-0.406,0.099l-0.112,0.027
	c-0.043-0.13-0.083-0.265-0.117-0.406c-0.254-1.041-0.147-2.269,0.319-3.684c0.527-1.608,1.008-3.017,1.446-4.223l-0.212-2.542
	l0.113-0.013l-0.002-0.014c0.463-0.06,0.944-0.135,1.448-0.222c1.052,1.109,2.347,2.259,3.889,3.444
	c0.804,0.614,2.215,1.624,4.235,3.03l0.252,1.033l-0.112,0.026l-1.806,0.442l0.124,0.509C87.206,91.183,87.168,91.188,87.128,91.19
	L87.128,91.19z M109.644,85.519c-0.282,0.123-0.57,0.235-0.857,0.342l-0.015-0.012l-0.122,0.046
	c-0.584-0.45-1.085-0.929-1.514-1.436c-0.476-0.567-1.632-2.04-3.468-4.426c-0.132,0.01-0.268,0.014-0.407,0.012l0.726,7.402
	c-0.046,0.003-0.093,0.005-0.139,0.006l0.002,0.028c-0.788,0.052-1.487-0.227-2.097-0.84c-0.362-0.361-0.602-0.579-0.714-0.664
	c-0.27-0.195-0.571-0.303-0.906-0.319c-0.119-0.171-0.332-0.481-0.641-0.935c-0.177-0.012-0.36-0.034-0.549-0.068
	c0.241,0.853,0.488,1.683,0.737,2.485c-0.15,0.652-0.238,1.071-0.27,1.252c-0.072,0.449-0.094,0.871-0.063,1.271
	c-0.047-0.01-0.095-0.021-0.142-0.028c0.002,0.021,0.004,0.041,0.006,0.062c-1.287-0.276-2.487-0.343-3.604-0.198
	c-0.082-0.26-0.156-0.528-0.223-0.801c-0.314-1.284-0.469-2.701-0.457-4.252c0.009-1.872-0.067-3.656-0.228-5.357l0.496-0.176
	c0.168-0.056,0.334-0.123,0.503-0.2l0.025,0.016c0.037-0.016,0.074-0.032,0.111-0.05c0.302,0.188,0.607,0.57,0.918,1.146
	c0.218,0.441,0.434,0.886,0.648,1.334c0.783,0.702,1.566,1.406,2.35,2.112c0.94,0.767,1.793,1.188,2.564,1.264
	c-0.204-1.891-0.315-3.13-0.334-3.724c-0.04-1.432,0.095-2.677,0.414-3.739c0.047-0.012,0.092-0.021,0.135-0.031V77.04
	c0.251-0.062,0.427-0.083,0.523-0.068c0.081,0.016,0.24,0.093,0.478,0.235c0.407,0.543,0.964,1.235,1.669,2.07
	c0.921,1.083,1.494,1.758,1.719,2.032C108.542,83.319,109.45,84.724,109.644,85.519L109.644,85.519z M100.979,87.642l-0.002-0.001
	l-0.015,0.065c-0.028,0.115-0.019,0.078,0-0.001L100.979,87.642L100.979,87.642z M118.992,78.057
	c-0.001,1.617-0.005,2.526-0.013,2.725c-0.045,1.079-0.179,1.966-0.403,2.667c-0.508,1.603-1.722,2.64-3.63,3.107l-0.002-0.002
	c-0.045,0.012-0.089,0.023-0.135,0.035c-1.256-0.426-2.252-1.217-2.981-2.37c-0.541-0.856-1.002-2.056-1.378-3.593
	c-0.13-0.531-0.239-1.077-0.332-1.638c-0.191-1.113-0.422-2.182-0.693-3.219c0.047-0.008,0.094-0.015,0.139-0.024l-0.002-0.008
	c0.136-0.023,0.266-0.05,0.386-0.077c0.403-0.105,0.708-0.24,0.916-0.407c0.292-0.229,0.729-0.414,1.312-0.556l0.003,0.001
	c0.044-0.011,0.087-0.023,0.135-0.034c0.36,0.223,0.649,0.755,0.86,1.594c0.213,0.846,0.427,1.793,0.646,2.845
	c0.104,0.494,0.216,0.985,0.334,1.472c0.14,0.567,0.289,1.13,0.45,1.69c0.3,1.035,0.721,1.876,1.263,2.524
	c1.296-0.809,1.969-2.028,2.016-3.658c0.022-0.623-0.037-1.22-0.175-1.784c-0.229-0.939-0.679-1.786-1.347-2.543l-0.884-3.607
	c0.139-0.237,0.251-0.377,0.332-0.421c0.032-0.018,0.086-0.032,0.163-0.046c0.094-0.036,0.296-0.061,0.608-0.074
	c0.517,0.737,1.011,1.715,1.479,2.939C118.283,76.182,118.593,77.003,118.992,78.057L118.992,78.057z"/>
<g>
	<path fill="#1B3891" d="M104.063,5.996c0.459-0.112,0.938-0.104,1.432,0.024c0.495,0.128,0.917,0.382,1.271,0.761
		c0.351,0.378,0.585,0.807,0.701,1.282c0.116,0.471,0.105,0.954-0.028,1.447c-0.133,0.494-0.388,0.914-0.763,1.261
		c-0.374,0.347-0.799,0.578-1.272,0.694c-0.474,0.116-0.957,0.107-1.448-0.028c-0.493-0.134-0.915-0.389-1.262-0.764
		c-0.35-0.376-0.581-0.799-0.696-1.271c-0.117-0.477-0.105-0.964,0.033-1.462c0.138-0.499,0.396-0.919,0.775-1.262
		C103.185,6.335,103.604,6.108,104.063,5.996z M104.174,6.449c-0.385,0.094-0.733,0.285-1.049,0.57
		c-0.314,0.286-0.53,0.637-0.647,1.053c-0.115,0.417-0.125,0.823-0.028,1.219c0.097,0.394,0.291,0.747,0.581,1.059
		c0.289,0.313,0.641,0.524,1.053,0.637c0.412,0.113,0.815,0.122,1.209,0.025c0.393-0.097,0.746-0.29,1.059-0.581
		c0.314-0.29,0.526-0.641,0.64-1.052c0.11-0.41,0.12-0.812,0.023-1.206c-0.098-0.396-0.293-0.752-0.588-1.069
		c-0.293-0.316-0.646-0.528-1.061-0.636C104.952,6.362,104.556,6.355,104.174,6.449z M103.903,10.538l-0.72-2.943l1.011-0.248
		c0.345-0.085,0.602-0.119,0.77-0.102c0.168,0.016,0.314,0.081,0.439,0.193s0.207,0.245,0.244,0.398
		c0.052,0.215,0.021,0.421-0.093,0.618c-0.115,0.197-0.296,0.337-0.546,0.418c0.115,0.019,0.212,0.049,0.289,0.094
		c0.146,0.087,0.339,0.246,0.577,0.478l0.499,0.488l-0.578,0.143l-0.375-0.4c-0.295-0.315-0.516-0.503-0.664-0.563
		c-0.104-0.047-0.238-0.049-0.405-0.008l-0.279,0.068l0.306,1.25L103.903,10.538z M103.974,8.765l0.575-0.141
		c0.275-0.067,0.453-0.154,0.534-0.261c0.08-0.107,0.103-0.227,0.069-0.363c-0.021-0.087-0.064-0.159-0.129-0.216
		c-0.064-0.057-0.145-0.092-0.239-0.105c-0.094-0.013-0.256,0.01-0.488,0.066l-0.54,0.132L103.974,8.765z"/>
</g>
</svg>
